# File produced by Open Asset Import Library (http://www.assimp.sf.net)
# (assimp v3.1.128981410)

mtllib ThroneSpike.mtl

# vertex positions
v 82.515984 105.518303 -8.524426
v 79.786453 105.378036 -8.518718
v 79.621048 108.596977 -8.518718
v 82.350555 108.737244 -8.524426
v 82.382813 108.738907 6.938856
v 79.653282 108.598663 6.944560
v 79.818695 105.379700 6.944560
v 82.548241 105.519966 6.938856
v 78.811836 124.343628 -8.518718
v 83.088783 137.794556 -3.643204
v 78.844078 124.345291 6.944560
v 78.295715 124.317108 3.079870
v 78.716080 124.338699 -0.786845
v 77.839378 124.293671 -4.650850
v 81.030624 124.514526 6.971597
v 88.239464 111.963112 7.403221
v 88.207214 111.961456 -8.060057
v 86.884415 128.175613 -7.974401
v 86.484230 135.550369 -1.101039
v 84.110611 158.695465 -0.431842
v 86.209167 128.713455 8.414310
v 78.175591 144.978333 -0.787930
v 78.090744 141.519699 -0.686871
v 77.656342 141.136292 3.079401
v 77.913658 143.697998 3.078590
v 77.713982 139.471466 3.079459
v 78.278885 139.500488 -0.787559
v 78.770973 124.341522 7.018219
v 79.551315 137.997131 8.061428
v 78.290245 139.501099 6.934213
v 78.286255 139.401489 -0.787563
v 77.266983 142.151611 -4.388642
v 78.656433 143.949219 6.709916
v 78.333595 141.171082 6.850562
v 78.453629 136.198669 -9.763044
v 78.467987 146.667267 -8.400438
v 77.989243 145.277847 -4.723094
v 76.750679 167.265381 5.302525
v 76.905815 170.616730 1.896505
v 75.712845 170.555450 1.898999
v 77.729973 150.200073 -2.600039
v 77.715637 154.271881 -2.028560
v 79.059479 152.594879 7.137070
v 78.077187 152.314774 0.367338
v 79.884094 146.773865 6.567378
v 77.271667 158.046783 0.835895
v 77.134895 160.653564 -0.509453
v 78.153717 167.442139 0.291786
v 77.599045 141.855591 -2.313549
v 81.492905 139.289673 9.047246
v 82.277565 126.525024 7.888328
v 85.408783 109.831261 -8.588410
v 85.441017 109.832924 6.874868
v 83.917175 125.542816 -8.586984
v 79.649063 146.954468 4.091241
v 84.610367 163.779968 -6.192391
v 80.443146 170.394958 -11.829362
v 79.080803 198.797485 -1.021983
v 85.037704 190.050812 -1.745610
v 77.204330 175.141968 10.699256
v 81.903183 154.818939 14.492011
v 84.803101 130.137344 15.119985
v 87.467590 131.868881 17.682812
v 84.351685 166.456482 9.973138
v 85.148148 108.250671 15.012263
v 90.515228 110.512886 15.535246
v 79.189751 157.974426 -10.658090
v 83.356987 151.359467 -5.021118
v 78.643845 182.019226 -1.000965
v 84.600739 173.272552 -1.724592
v 78.727333 211.928436 10.618419
v 84.684227 203.181778 9.894791
v 79.106842 190.792450 9.489179
v 85.063736 182.045761 8.765551

# UV coordinates
vt 0.173706 0.245830
vt 0.159876 0.256866
vt 0.176077 0.281235
vt 0.150249 0.258779
vt 0.183973 0.234895
vt 0.192924 0.269671
vt 0.171933 0.272472
vt 0.189382 0.257875
vt 0.231516 0.448407
vt 0.187113 0.612956
vt 0.290066 0.438339
vt 0.277980 0.442765
vt 0.266582 0.444602
vt 0.249789 0.446819
vt 0.322718 0.424897
vt 0.051629 0.264849
vt 0.081273 0.279764
vt 0.111308 0.487684
vt 0.120908 0.581755
vt 0.199656 0.880654
vt 0.072875 0.496285
vt 0.309623 0.704431
vt 0.309993 0.657932
vt 0.319351 0.653766
vt 0.318790 0.687642
vt 0.318971 0.633539
vt 0.306657 0.633261
vt 0.289824 0.442582
vt 0.325583 0.442886
vt 0.347408 0.616265
vt 0.331347 0.634262
vt 0.302965 0.631060
vt 0.295047 0.665424
vt 0.334686 0.692699
vt 0.331007 0.655640
vt 0.259213 0.593852
vt 0.289174 0.725599
vt 0.298058 0.707577
vt 0.449227 0.009766
vt 0.461096 0.034563
vt 0.449227 0.038131
vt 0.308323 0.771726
vt 0.311813 0.823948
vt 0.340792 0.805801
vt 0.318897 0.799873
vt 0.356016 0.729448
vt 0.348666 0.799346
vt 0.182580 0.069526
vt 0.185330 0.104169
vt 0.159761 0.110938
vt 0.159761 0.009766
vt 0.193971 0.009766
vt 0.200152 0.081329
vt 0.193971 0.130233
vt 0.065027 0.009766
vt 0.085901 0.127759
vt 0.065027 0.043309
vt 0.301637 0.662008
vt 0.349485 0.807876
vt 0.379308 0.636708
vt 0.357262 0.446856
vt 0.379308 0.474697
vt 0.116492 0.260919
vt 0.116246 0.227210
vt 0.153248 0.458515
vt 0.909739 0.009766
vt 0.925272 0.437014
vt 0.909739 0.419201
vt 0.915549 0.213913
vt 0.126944 0.033711
vt 0.099839 0.009766
vt 0.326660 0.905708
vt 0.316237 0.990234
vt 0.568465 0.206961
vt 0.535494 0.400381
vt 0.436955 0.444038
vt 0.449827 0.285394
vt 0.327159 0.009766
vt 0.316247 0.179842
vt 0.327159 0.380542
vt 0.301581 0.372388
vt 0.278179 0.092880
vt 0.009766 0.177816
vt 0.009766 0.009766
vt 0.055839 0.023378
vt 0.032875 0.189281
vt 0.241338 0.009766
vt 0.282568 0.027420
vt 0.241338 0.034593
vt 0.567698 0.036907
vt 0.549224 0.113496
vt 0.549224 0.009766
vt 0.559969 0.009979
vt 0.925528 0.101671
vt 0.946484 0.009766
vt 0.946484 0.246206
vt 0.935013 0.301471
vt 0.736284 0.015886
vt 0.736284 0.192493
vt 0.643184 0.305938
vt 0.649061 0.121879
vt 0.590319 0.426333
vt 0.476697 0.507422
vt 0.600200 0.140011
vt 0.518340 0.223137
vt 0.336072 0.009766
vt 0.362899 0.009828
vt 0.340414 0.328489
vt 0.336072 0.240481
vt 0.202499 0.982230
vt 0.050169 0.536950
vt 0.416795 0.409771
vt 0.424860 0.285627
vt 0.411902 0.563067
vt 0.390926 0.556520
vt 0.435750 0.460986
vt 0.367650 0.383470
vt 0.395647 0.009766
vt 0.544419 0.124289
vt 0.451881 0.234972
vt 0.746586 0.283700
vt 0.746586 0.009766
vt 0.791586 0.050570
vt 0.752709 0.358957
vt 0.857109 0.009766
vt 0.900394 0.293685
vt 0.857109 0.281869
vt 0.220286 0.265748
vt 0.220286 0.009766
vt 0.251859 0.099304
vt 0.265247 0.279729
vt 0.847923 0.054111
vt 0.821117 0.294292
vt 0.801848 0.317930
vt 0.801848 0.009766
vt 0.009766 0.239237
vt 0.111105 0.201522

# vertex normals
vn -0.002085 -0.000107 -0.999998
vn 0.396105 0.090150 -0.913769
vn 0.056940 0.096611 -0.993692
vn -0.003064 -0.001060 0.999995
vn -0.003085 -0.001065 0.999995
vn 0.002084 0.000107 0.999998
vn 0.051321 -0.998682 0.000000
vn 0.051321 -0.998682 0.000000
vn 0.051321 -0.998682 0.000000
vn -0.998680 -0.051319 0.002088
vn -0.997345 -0.072798 0.002087
vn -0.997345 -0.072798 0.002087
vn 0.998680 0.051325 -0.002088
vn 0.501112 0.085756 -0.861123
vn 0.209670 0.123945 -0.969885
vn -0.997015 -0.077183 0.002087
vn -0.997665 -0.068255 0.002540
vn -0.997598 -0.067610 0.015072
vn -0.997741 -0.067159 0.001577
vn -0.996558 -0.067957 -0.047475
vn -0.004255 -0.001330 0.999990
vn -0.004255 -0.001330 0.999990
vn 0.995137 0.088836 0.042545
vn 0.995137 0.088836 0.042545
vn 0.996799 0.042407 -0.067779
vn 0.996963 0.077769 -0.004180
vn -0.995362 0.055238 -0.078765
vn -0.995362 0.055238 -0.078765
vn -0.995145 0.063070 0.075556
vn -0.996146 0.080205 0.035497
vn -0.999355 -0.035750 -0.003527
vn -0.991212 -0.036355 -0.127189
vn -0.311799 -0.054648 0.948575
vn -0.311799 -0.054648 0.948575
vn -0.311799 -0.054648 0.948575
vn -0.311799 -0.054648 0.948575
vn -0.971587 -0.034859 0.234101
vn -0.977220 0.013674 0.211787
vn -0.989170 -0.062364 -0.132865
vn -0.989170 -0.062364 -0.132865
vn -0.576915 0.088439 0.812002
vn -0.576915 0.088439 0.812002
vn -0.576915 0.088439 0.812002
vn 0.098527 -0.005306 -0.995120
vn 0.577729 -0.095847 -0.810581
vn -0.977383 0.022779 -0.210246
vn -0.974383 0.068984 -0.214051
vn -0.035162 0.713163 0.700116
vn -0.035162 0.713163 0.700116
vn -0.997987 -0.028030 -0.056887
vn -0.995312 -0.054909 0.079619
vn -0.999604 -0.017417 0.022104
vn -0.991489 0.006373 -0.130033
vn -0.990655 0.015529 -0.135504
vn -0.996590 0.041375 0.071387
vn -0.996590 0.041375 0.071387
vn -0.996590 0.041375 0.071387
vn -0.996590 0.041375 0.071387
vn 0.248826 -0.059363 0.966727
vn 0.248826 -0.059363 0.966727
vn -0.990006 -0.030620 0.137662
vn -0.990006 -0.030620 0.137662
vn -0.982106 -0.147579 0.116992
vn -0.982107 -0.147579 0.116992
vn -0.982106 -0.147579 0.116992
vn -0.995616 -0.078493 -0.050872
vn -0.995616 -0.078493 -0.050872
vn -0.947174 0.106443 0.302540
vn -0.947174 0.106443 0.302540
vn -0.947174 0.106443 0.302540
vn -0.985028 0.059438 0.161825
vn -0.984358 0.074777 0.159522
vn -0.977661 0.149542 0.147706
vn -0.977661 0.149542 0.147706
vn -0.990403 -0.034339 0.133873
vn -0.982280 0.066927 0.175064
vn -0.976811 0.110977 0.183095
vn -0.986758 -0.000157 0.162200
vn -0.986758 -0.000157 0.162200
vn -0.979568 0.035889 0.197885
vn -0.979568 0.035889 0.197885
vn -0.979568 0.035889 0.197885
vn -0.449709 0.166432 0.877532
vn -0.449709 0.166432 0.877532
vn -0.431337 -0.038037 0.901389
vn -0.439212 0.027050 0.897976
vn -0.419866 -0.113365 0.900478
vn -0.419866 -0.113365 0.900478
vn 0.336815 -0.941570 -0.000601
vn 0.336815 -0.941571 -0.000601
vn 0.476236 -0.879317 -0.000898
vn 0.489001 -0.870385 -0.057519
vn -0.410526 0.087137 -0.907676
vn -0.474921 0.054925 -0.878313
vn 0.993222 0.103394 -0.053107
vn 0.993222 0.103394 -0.053107
vn -0.825019 0.021688 0.564689
vn -0.825019 0.021688 0.564689
vn -0.825019 0.021688 0.564689
vn -0.156708 -0.053573 0.986191
vn -0.156708 -0.053573 0.986191
vn -0.945668 0.086665 -0.313370
vn -0.945668 0.086665 -0.313370
vn -0.945668 0.086665 -0.313370
vn 0.666801 0.210834 -0.714791
vn 0.666801 0.210834 -0.714791
vn 0.666801 0.210834 -0.714791
vn 0.666801 0.210834 -0.714791
vn 0.605833 -0.795591 -0.001178
vn 0.552203 -0.827090 -0.104852
vn 0.179362 0.018495 -0.983609
vn 0.179362 0.018495 -0.983609
vn 0.163255 0.188714 0.968367
vn 0.163255 0.188714 0.968367
vn 0.163255 0.188714 0.968367
vn 0.163255 0.188714 0.968367
vn -0.325078 -0.074672 0.942735
vn -0.325077 -0.074672 0.942735
vn -0.325078 -0.074672 0.942735
vn -0.325078 -0.074672 0.942735
vn -0.443668 0.216511 -0.869645
vn -0.443668 0.216511 -0.869645
vn 0.934766 0.231023 0.269890
vn 0.934766 0.231023 0.269890
vn 0.934766 0.231023 0.269890
vn -0.495706 0.058685 -0.866506
vn -0.495706 0.058685 -0.866506
vn -0.495705 0.058685 -0.866506
vn -0.495705 0.058685 -0.866506
vn -0.977346 -0.134437 0.163466
vn -0.977346 -0.134437 0.163466
vn -0.977346 -0.134437 0.163466
vn 0.699620 -0.136584 -0.701339
vn 0.666348 -0.135857 -0.733160
vn -0.992338 0.030022 -0.119850
vn -0.992338 0.030022 -0.119850
vn -0.978650 0.045321 -0.200474
vn -0.990194 0.033040 -0.135734
vn 0.993844 -0.036701 -0.104536
vn 0.993844 -0.036701 -0.104536
vn 0.993844 -0.036701 -0.104536
vn 0.993844 -0.036701 -0.104536
vn -0.979452 -0.130604 -0.153676
vn -0.979452 -0.130604 -0.153676
vn -0.979452 -0.130604 -0.153676
vn 0.998269 0.010369 -0.057890
vn 0.993025 0.053216 -0.105216
vn 0.670792 0.502006 -0.545919
vn 0.670792 0.502006 -0.545919
vn 0.670792 0.502006 -0.545919
vn -0.990908 0.090016 -0.099988
vn -0.990908 0.090016 -0.099988
vn -0.999345 0.026009 -0.025182
vn -0.995595 0.063492 -0.068983
vn 0.188390 0.060095 0.980254
vn 0.188390 0.060095 0.980254
vn 0.160237 0.037892 0.986351
vn 0.074979 -0.028652 0.996773
vn 0.999622 -0.027363 -0.002526
vn 0.999933 -0.011163 -0.003167
vn -0.954134 -0.109752 0.278538
vn -0.954134 -0.109752 0.278537
vn -0.954134 -0.109752 0.278537
vn -0.917884 -0.098061 0.384542
vn -0.917884 -0.098061 0.384542
vn -0.929777 -0.130862 0.344079
vn -0.929777 -0.130862 0.344079
vn -0.929777 -0.130862 0.344079
vn 0.713032 -0.136801 -0.687656
vn 0.713032 -0.136801 -0.687656
vn -0.975790 0.047775 -0.213428
vn -0.975790 0.047775 -0.213428
vn 0.992050 -0.052765 0.114245
vn 0.992050 -0.052765 0.114245
vn 0.992050 -0.052765 0.114245
vn -0.999993 0.001411 0.003553
vn -0.999993 0.001411 0.003553
vn 0.044090 -0.052510 0.997647
vn 0.999993 -0.001412 -0.003552
vn 0.999993 -0.001412 -0.003552
vn -0.983395 -0.093946 0.155267
vn -0.983395 -0.093946 0.155267
vn -0.983395 -0.093946 0.155267
vn 0.483964 -0.847756 -0.216999
vn 0.483964 -0.847756 -0.216999
vn 0.966558 0.146261 -0.210649
vn 0.966558 0.146261 -0.210649
vn 0.966558 0.146261 -0.210649
vn 0.966558 0.146261 -0.210649

# Mesh
g Spikes:Spike11
usemtl lambert1
f 4/4/3 1/1/1 2/2/1
f 2/2/1 3/3/2 4/4/3
f 8/8/6 5/5/4 6/6/5
f 6/6/5 7/7/6 8/8/6
f 1/1/8 8/8/7 7/7/8
f 7/7/8 2/2/9 1/1/8
f 3/3/12 2/2/10 7/7/10
f 7/7/10 6/6/11 3/3/12
f 5/5/13 8/8/13 1/1/13
f 1/1/13 4/4/13 5/5/13
f 10/10/15 4/4/3 3/3/2
f 3/3/2 9/9/14 10/10/15
f 9/9/20 3/3/12 6/6/11
f 6/6/11 11/11/16 12/12/17
f 6/6/11 12/12/17 13/13/18
f 6/6/11 13/13/18 14/14/19
f 6/6/11 14/14/19 9/9/20
f 11/11/22 6/6/5 5/5/4
f 5/5/4 15/15/21 11/11/22
f 21/21/26 16/16/23 17/17/23
f 21/21/26 17/17/23 18/18/24
f 21/21/26 18/18/24 19/19/23
f 19/19/23 20/20/25 21/21/26
f 25/25/30 22/22/27 23/23/28
f 23/23/28 24/24/29 25/25/30
f 27/27/32 13/13/18 12/12/17
f 12/12/17 26/26/31 27/27/32
f 30/31/36 28/28/33 15/29/34
f 15/29/34 29/30/35 30/31/36
f 32/33/38 14/14/19 13/13/18
f 13/13/18 31/32/37 32/33/38
f 23/23/40 27/27/32 26/26/31
f 26/26/31 24/24/39 23/23/40
f 34/35/42 30/31/41 29/30/42
f 29/30/42 33/34/43 34/35/42
f 36/37/45 10/10/15 9/9/14
f 9/9/14 35/36/44 36/37/45
f 35/36/44 9/9/20 14/14/19
f 14/14/19 32/33/46 35/36/44
f 36/37/45 35/36/44 32/33/46
f 32/33/46 37/38/47 36/37/45
f 38/39/48 39/40/49 40/41/49
f 37/38/50 22/22/51 41/42/52
f 37/38/50 41/42/52 36/37/53
f 36/37/53 41/42/52 42/43/54
f 44/45/58 22/22/55 25/25/56
f 25/25/56 43/44/57 44/45/58
f 33/34/59 45/46/60 43/47/60
f 42/43/62 41/42/52 22/22/51
f 22/22/51 44/45/61 42/43/62
f 46/51/65 42/48/63 44/49/64
f 44/49/64 43/50/65 46/51/65
f 42/52/66 46/53/67 47/54/67
f 46/55/68 48/56/69 47/57/70
f 49/58/72 32/33/38 31/32/37
f 31/32/37 23/23/71 49/58/72
f 37/38/74 32/33/38 49/58/72
f 37/38/74 49/58/72 23/23/71
f 23/23/71 22/22/73 37/38/74
f 30/31/75 26/26/31 12/12/17
f 12/12/17 28/28/75 30/31/75
f 33/34/77 25/25/30 24/24/29
f 24/24/29 34/35/76 33/34/77
f 34/35/76 24/24/29 26/26/78
f 26/26/78 30/31/79 34/35/76
f 43/59/80 25/25/81 33/34/82
f 50/60/86 45/46/83 33/34/84
f 33/34/84 29/30/85 50/60/86
f 51/62/88 50/60/86 29/30/85
f 29/30/85 15/61/87 51/62/88
f 53/64/92 5/5/89 4/4/90
f 4/4/90 52/63/91 53/64/92
f 52/63/94 4/4/3 10/10/15
f 10/10/15 54/65/93 52/63/94
f 20/20/95 19/19/96 18/18/95
f 55/69/99 48/66/97 15/67/98
f 15/67/98 51/68/97 55/69/99
f 51/71/100 15/70/100 5/5/101
f 5/5/101 53/64/100 51/71/100
f 36/37/102 42/43/102 47/72/103
f 47/72/103 48/73/104 36/37/102
f 59/77/108 56/74/105 57/75/106
f 57/75/106 58/76/107 59/77/108
f 16/16/110 53/64/92 52/63/91
f 52/63/91 17/17/109 16/16/110
f 17/17/112 52/63/94 54/65/93
f 54/65/93 18/18/111 17/17/112
f 64/82/116 60/78/113 61/79/114
f 64/82/116 61/79/114 62/80/115
f 62/80/115 63/81/116 64/82/116
f 63/86/120 62/83/117 65/84/118
f 65/84/118 66/85/119 63/86/120
f 18/18/122 54/65/93 10/10/15
f 10/10/15 20/20/121 18/18/122
f 48/87/123 39/88/124 38/89/125
f 39/93/129 48/90/126 46/91/127
f 46/91/127 40/92/128 39/93/129
f 40/97/132 46/94/130 43/95/131
f 43/95/131 38/96/131 40/97/132
f 68/101/134 10/98/15 36/99/45
f 36/99/45 67/100/133 68/101/134
f 67/100/138 36/99/135 48/102/136
f 48/102/136 69/103/137 67/100/138
f 70/105/142 20/104/139 10/98/140
f 10/98/140 68/101/141 70/105/142
f 43/109/143 38/106/143 48/107/144
f 48/107/144 55/108/145 43/109/143
f 63/111/147 21/21/26 20/20/25
f 20/20/25 64/110/146 63/111/147
f 72/113/150 59/77/148 58/76/148
f 58/76/148 71/112/149 72/113/150
f 69/103/154 48/114/151 38/115/152
f 69/103/154 38/115/152 60/116/151
f 60/116/151 73/117/153 69/103/154
f 73/117/158 60/118/155 64/119/156
f 64/119/156 74/120/157 73/117/158
f 74/120/160 64/119/146 20/104/25
f 20/104/25 70/105/159 74/120/160
f 43/124/161 55/121/161 51/122/162
f 51/122/162 62/123/163 43/124/161
f 62/125/164 61/126/164 43/127/165
f 43/131/168 61/128/166 60/129/166
f 60/129/166 38/130/167 43/131/168
f 56/74/170 68/101/134 67/100/133
f 67/100/133 57/75/169 56/74/170
f 57/75/172 67/100/138 69/103/137
f 69/103/137 58/76/171 57/75/172
f 59/77/173 70/105/173 68/101/174
f 68/101/174 56/74/175 59/77/173
f 58/76/177 69/103/154 73/117/153
f 73/117/153 71/112/176 58/76/177
f 71/112/178 73/117/158 74/120/157
f 74/120/157 72/113/178 71/112/178
f 72/113/180 74/120/160 70/105/159
f 70/105/159 59/77/179 72/113/180
f 62/135/183 51/132/181 53/133/182
f 53/133/182 65/134/181 62/135/183
f 65/137/185 53/64/92 16/16/110
f 16/16/110 66/136/184 65/137/185
f 66/136/189 16/16/186 21/21/187
f 21/21/187 63/111/188 66/136/189
