# File produced by Open Asset Import Library (http://www.assimp.sf.net)
# (assimp v3.1.128981410)

mtllib Spikes_Big.mtl

# vertex positions
v -19.229059 99.657600 -14.373083
v -19.412775 99.657555 -14.342754
v -18.712517 100.271912 -13.325717
v -19.587349 99.657692 -14.254377
v -19.831114 99.657463 -13.938688
v -19.732328 99.657684 -14.115000
v -19.873138 99.657394 -13.747241
v -19.856501 99.657928 -13.562622
v -19.785669 99.658157 -13.400196
v -19.668467 99.657837 -13.272807
v -19.515831 99.657600 -13.191458
v -19.340441 99.657669 -13.163757
v -19.156748 99.657738 -13.194083
v -18.982199 99.657646 -13.282576
v -18.836807 99.657631 -13.422371
v -18.738174 99.657608 -13.597916
v -18.696407 99.657608 -13.788847
v -18.713099 99.657410 -13.974080
v -18.783772 99.657013 -14.136396
v -18.901270 99.657509 -14.263892
v -19.054199 99.657997 -14.345451
v -25.479506 80.906128 -20.700790
v -25.479506 81.766846 -20.700790
v -24.585665 81.766846 -20.814920
v -24.585655 80.906128 -20.814913
v -26.294342 80.906128 -20.316038
v -26.294342 81.766846 -20.316038
v -27.383469 81.766846 -18.908098
v -26.950403 81.766846 -19.698317
v -26.950403 80.906128 -19.698317
v -27.383469 80.906128 -18.908098
v -27.551146 80.906128 -18.022728
v -27.551146 81.766846 -18.022728
v -27.437023 80.906128 -17.128880
v -27.437023 80.906128 -17.128878
v -27.437023 81.766846 -17.128880
v -27.052271 80.906128 -16.314041
v -27.052271 81.766846 -16.314041
v -26.434549 80.906128 -15.657982
v -26.434549 81.766846 -15.657982
v -25.644331 80.906128 -15.224916
v -25.644331 80.906128 -15.224917
v -25.644331 81.766846 -15.224916
v -24.758963 80.906128 -15.057240
v -24.758963 81.766846 -15.057240
v -23.865110 80.906128 -15.171362
v -23.865116 81.766846 -15.171366
v -23.050276 80.906128 -15.556115
v -23.050280 81.766846 -15.556119
v -22.394217 80.906128 -16.173836
v -22.394215 81.766846 -16.173834
v -21.961151 80.906128 -16.964054
v -21.961149 81.766846 -16.964054
v -21.793472 80.906128 -17.849422
v -21.793478 81.766846 -17.849426
v -21.907597 80.906128 -18.743273
v -21.907600 81.766846 -18.743277
v -22.292347 80.906128 -19.558109
v -22.292347 81.766846 -19.558109
v -22.910069 80.906128 -20.214169
v -22.910069 81.766846 -20.214169
v -23.700296 81.766846 -20.647242
v -23.700287 80.906128 -20.647236
v -24.680538 83.203217 -20.346369
v -25.439653 83.203217 -20.276217
v -26.123659 83.203217 -19.977001
v -27.012419 83.203217 -18.828072
v -26.665600 83.203217 -19.478006
v -27.130182 83.203217 -18.090832
v -27.007334 83.203217 -17.338428
v -26.655920 83.203217 -16.644533
v -26.110355 83.203217 -16.077076
v -25.424028 83.203217 -15.691591
v -24.664103 83.203217 -15.525802
v -23.904970 83.203217 -15.595939
v -23.220963 83.203217 -15.895155
v -22.679018 83.203217 -16.394146
v -22.332199 83.203217 -17.044081
v -22.214447 83.203217 -17.781326
v -22.337282 83.203217 -18.533718
v -22.688669 83.203217 -19.227596
v -23.234262 83.203217 -19.795076
v -23.920628 83.203217 -20.180592
v -23.760714 88.343086 -19.132072
v -24.304857 88.343109 -19.031023
v -24.807554 88.343109 -18.764915
v -25.508537 88.343117 -17.858730
v -25.221762 88.343117 -18.361113
v -25.639828 88.343124 -17.305315
v -25.600964 88.343117 -16.753273
v -25.393547 88.343086 -16.256229
v -25.037355 88.343109 -15.864392
v -24.568634 88.343109 -15.618114
v -24.035503 88.343109 -15.542296
v -23.491386 88.343109 -15.643369
v -22.988686 88.343109 -15.909475
v -22.574497 88.343109 -16.313295
v -22.287704 88.343109 -16.815660
v -22.156437 88.343109 -17.369093
v -22.195313 88.343109 -17.921143
v -22.402678 88.343117 -18.418148
v -22.758881 88.343117 -18.809999
v -23.227585 88.343086 -19.056265
v -21.381636 95.600952 -16.611134
v -21.732168 95.600990 -16.551479
v -22.058775 95.600952 -16.383568
v -22.328447 95.600952 -16.123051
v -22.512878 95.600990 -15.796605
v -22.593138 95.600868 -15.438080
v -22.562855 95.600822 -15.083675
v -22.426497 95.600891 -14.767463
v -22.197983 95.600960 -14.518459
v -21.899431 95.600960 -14.359840
v -21.558968 95.600960 -14.307232
v -21.208565 95.600990 -14.366961
v -20.881954 95.600998 -14.534883
v -20.612230 95.600967 -14.795362
v -20.427738 95.600929 -15.121777
v -20.347300 95.600929 -15.480124
v -20.377554 95.600906 -15.834263
v -20.514145 95.600960 -16.150665
v -20.742908 95.601059 -16.399973
v -21.041328 95.601006 -16.558540

# UV coordinates
vt 0.582645 0.512748
vt 0.583071 0.528036
vt 0.534163 0.516537
vt 0.578885 0.544579
vt 0.553804 0.567714
vt 0.569946 0.560129
vt 0.537300 0.570443
vt 0.522647 0.568739
vt 0.510923 0.563573
vt 0.502559 0.555841
vt 0.497753 0.546172
vt 0.496738 0.534949
vt 0.500039 0.522753
vt 0.508381 0.511130
vt 0.521422 0.502654
vt 0.531336 0.490801
vt 0.543857 0.483945
vt 0.556390 0.482080
vt 0.567499 0.484315
vt 0.576795 0.490183
vt 0.583771 0.499436
vt 0.972167 0.601953
vt 0.972151 0.601980
vt 0.897967 0.582682
vt 0.904064 0.455724
vt 0.981234 0.450983
vt 0.917641 0.742869
vt 0.917633 0.742855
vt 0.854462 0.703882
vt 0.669852 0.876780
vt 0.773896 0.803574
vt 0.824644 0.863746
vt 0.692006 0.947954
vt 0.548586 0.984974
vt 0.548577 0.984964
vt 0.544346 0.910521
vt 0.692006 0.947953
vt 0.398701 0.980230
vt 0.398700 0.980228
vt 0.417982 0.901609
vt 0.259661 0.926008
vt 0.259662 0.926008
vt 0.300318 0.859844
vt 0.143330 0.832165
vt 0.143332 0.832166
vt 0.200561 0.784134
vt 0.057523 0.708376
vt 0.057538 0.708378
vt 0.134080 0.679558
vt 0.018496 0.562827
vt 0.018504 0.562812
vt 0.096511 0.560225
vt 0.024859 0.411362
vt 0.024867 0.411379
vt 0.099277 0.433335
vt 0.079009 0.269166
vt 0.079009 0.269168
vt 0.142259 0.312433
vt 0.173409 0.150221
vt 0.173422 0.150228
vt 0.221100 0.210521
vt 0.300353 0.066013
vt 0.300352 0.066015
vt 0.327618 0.137922
vt 0.447224 0.025685
vt 0.447240 0.025691
vt 0.451478 0.102416
vt 0.598171 0.033152
vt 0.598170 0.033165
vt 0.579464 0.107670
vt 0.738242 0.085709
vt 0.738243 0.085711
vt 0.698916 0.151839
vt 0.855562 0.179509
vt 0.855561 0.179510
vt 0.799681 0.228660
vt 0.866973 0.334738
vt 0.941914 0.303892
vt 0.981235 0.450982
vt 0.796703 0.478083
vt 0.791869 0.570501
vt 0.758437 0.654134
vt 0.630459 0.774595
vt 0.701572 0.722053
vt 0.544999 0.801784
vt 0.452979 0.799186
vt 0.363240 0.768650
vt 0.284832 0.712503
vt 0.230739 0.631463
vt 0.202473 0.539265
vt 0.204799 0.444764
vt 0.236970 0.358269
vt 0.295829 0.289915
vt 0.367162 0.234799
vt 0.455657 0.207108
vt 0.550970 0.209610
vt 0.642755 0.242655
vt 0.721132 0.302619
vt 0.774060 0.385752
vt 0.646501 0.455508
vt 0.649829 0.508795
vt 0.635684 0.563136
vt 0.553226 0.641357
vt 0.601293 0.609606
vt 0.498733 0.652735
vt 0.446121 0.648201
vt 0.399839 0.629664
vt 0.363188 0.599238
vt 0.338195 0.559397
vt 0.326571 0.512993
vt 0.331047 0.463637
vt 0.353683 0.417546
vt 0.393010 0.382668
vt 0.430335 0.345880
vt 0.478021 0.326217
vt 0.528111 0.324731
vt 0.574568 0.339102
vt 0.613979 0.366475
vt 0.643750 0.405049
vt 0.608834 0.485500
vt 0.612009 0.517663
vt 0.605882 0.551948
vt 0.580993 0.578499
vt 0.553048 0.601681
vt 0.518958 0.605940
vt 0.487611 0.601319
vt 0.461396 0.589336
vt 0.441317 0.571679
vt 0.427795 0.549397
vt 0.421810 0.523177
vt 0.425427 0.494677
vt 0.440475 0.467833
vt 0.466049 0.448201
vt 0.488126 0.424864
vt 0.516372 0.412521
vt 0.545270 0.411408
vt 0.571278 0.419400
vt 0.593043 0.434481
vt 0.609934 0.455772

# vertex normals
vn 0.134398 0.464389 -0.875374
vn -0.296112 0.629074 -0.718737
vn 0.000196 1.000000 -0.000223
vn -0.420285 0.716209 -0.557140
vn -0.703495 0.672047 -0.231189
vn -0.614307 0.630226 -0.474808
vn -0.796286 0.604920 0.000647
vn -0.814582 0.513877 0.269048
vn -0.741207 0.360727 0.566116
vn -0.541858 0.145565 0.827768
vn -0.239879 -0.087690 0.966834
vn 0.078754 -0.276217 0.957863
vn 0.350046 -0.395761 0.849023
vn 0.564341 -0.455900 0.688240
vn 0.732144 -0.468640 0.494309
vn 0.859251 -0.436591 0.266602
vn 0.935874 -0.352332 -0.001535
vn 0.929778 -0.202218 -0.307604
vn 0.794555 0.013088 -0.607051
vn 0.439563 0.352641 -0.826092
vn 0.000000 1.000000 0.000000
vn -0.229268 -0.000004 -0.973363
vn -0.261650 0.181470 -0.947949
vn 0.005028 0.170184 -0.985400
vn 0.082743 -0.000007 -0.996571
vn -0.636456 0.066379 -0.768452
vn -0.633929 0.178221 -0.752577
vn -0.898777 0.094736 -0.428048
vn -0.769401 0.231915 -0.595178
vn -0.780567 0.161621 -0.603816
vn -0.941329 0.000000 -0.337491
vn -0.996571 0.000000 -0.082742
vn -0.984710 0.171181 -0.032285
vn -0.973364 -0.000000 0.229264
vn -0.942584 0.192221 0.273106
vn -0.854877 -0.000000 0.518830
vn -0.809867 0.210837 0.547416
vn -0.652709 0.000000 0.757609
vn -0.602498 0.220180 0.767149
vn -0.386650 0.000000 0.922226
vn -0.339771 0.216963 0.915141
vn -0.082742 -0.000000 0.996571
vn -0.043247 0.202309 0.978366
vn 0.229267 0.000004 0.973364
vn 0.261644 0.181474 0.947950
vn 0.518831 0.000006 0.854877
vn 0.545058 0.162327 0.822534
vn 0.757607 0.000000 0.652711
vn 0.775959 0.152448 0.612084
vn 0.922226 -0.000002 0.386651
vn 0.927972 0.155870 0.338485
vn 0.996571 0.000004 0.082740
vn 0.984710 0.171185 0.032280
vn 0.973364 0.000004 -0.229265
vn 0.942585 0.192221 -0.273102
vn 0.854878 0.000001 -0.518829
vn 0.809869 0.210833 -0.547413
vn 0.611860 -0.000000 -0.790966
vn 0.532960 0.301440 -0.790625
vn 0.331289 0.190877 -0.924020
vn 0.337492 -0.000003 -0.941328
vn 0.124920 0.260446 -0.957373
vn -0.242242 0.272556 -0.931145
vn -0.606205 0.310309 -0.732273
vn -0.878906 0.291748 -0.377368
vn -0.747300 0.327673 -0.578077
vn -0.956672 0.289314 -0.032804
vn -0.929397 0.255717 0.266139
vn -0.813236 0.213074 0.541522
vn -0.617999 0.167031 0.768230
vn -0.359799 0.123180 0.924863
vn -0.060657 0.086270 0.994424
vn 0.251330 0.059618 0.966064
vn 0.543008 0.044739 0.838535
vn 0.780812 0.041417 0.623391
vn 0.937494 0.048380 0.344621
vn 0.997351 0.064211 0.034190
vn 0.957647 0.087845 -0.274217
vn 0.826498 0.118433 -0.550340
vn 0.583170 0.137755 -0.800585
vn 0.353033 0.132668 -0.926157
vn -0.014179 0.285036 -0.958412
vn -0.303660 0.349575 -0.886334
vn -0.580404 0.395319 -0.711937
vn -0.827546 0.372349 -0.420148
vn -0.709467 0.442107 -0.548815
vn -0.936316 0.347451 -0.050893
vn -0.926719 0.284141 0.245879
vn -0.816576 0.197579 0.542371
vn -0.601758 0.097145 0.792748
vn -0.308446 -0.001731 0.951240
vn 0.014735 -0.084444 0.996319
vn 0.320825 -0.143452 0.936212
vn 0.581009 -0.178322 0.794122
vn 0.783356 -0.191312 0.591399
vn 0.921891 -0.183260 0.341369
vn 0.986890 -0.152193 0.053709
vn 0.962198 -0.094935 -0.255268
vn 0.832928 -0.011350 -0.553266
vn 0.609232 0.092883 -0.787534
vn 0.319502 0.185551 -0.929241
vn -0.063628 0.385599 -0.920470
vn -0.318277 0.460157 -0.828827
vn -0.494772 0.528914 -0.689529
vn -0.690375 0.487980 -0.534095
vn -0.820988 0.494188 -0.285932
vn -0.892096 0.450751 -0.031426
vn -0.892185 0.370567 0.258236
vn -0.791119 0.247192 0.559488
vn -0.572758 0.088298 0.814955
vn -0.268004 -0.076899 0.960344
vn 0.054863 -0.214228 0.975242
vn 0.341215 -0.307581 0.888238
vn 0.573121 -0.358536 0.736875
vn 0.753107 -0.372936 0.541986
vn 0.883581 -0.352638 0.308108
vn 0.955191 -0.294049 0.033854
vn 0.942792 -0.191193 -0.273108
vn 0.815527 -0.045550 -0.576924
vn 0.577164 0.140531 -0.804446
vn 0.300071 0.250390 -0.920469

# Mesh
g Spike_Big1
usemtl lambert1
f 1/1/1 2/2/2 3/3/3
f 2/2/2 4/4/4 3/3/3
f 5/5/5 3/3/3 4/4/4
f 4/4/4 6/6/6 5/5/5
f 5/5/5 7/7/7 3/3/3
f 7/7/7 8/8/8 3/3/3
f 8/8/8 9/9/9 3/3/3
f 9/9/9 10/10/10 3/3/3
f 10/10/10 11/11/11 3/3/3
f 11/11/11 12/12/12 3/3/3
f 12/12/12 13/13/13 3/3/3
f 13/13/13 14/14/14 3/3/3
f 14/14/14 15/15/15 3/3/3
f 15/15/15 16/16/16 3/3/3
f 16/16/16 17/17/17 3/3/3
f 17/17/17 18/18/18 3/3/3
f 18/18/18 19/19/19 3/3/3
f 19/19/19 20/20/20 3/3/3
f 1/1/1 3/3/3 20/20/20
f 20/20/20 21/21/21 1/1/1
f 22/22/22 22/23/22 23/24/23
f 22/22/22 23/24/23 24/25/24
f 24/25/24 25/26/25 22/22/22
f 26/27/26 26/28/26 27/29/27
f 26/27/26 27/29/27 23/24/23
f 23/24/23 22/23/22 26/27/26
f 28/30/28 29/31/29 27/29/27
f 28/30/28 27/29/27 26/28/26
f 28/30/28 26/28/26 30/32/30
f 30/32/30 31/33/31 28/30/28
f 32/34/32 32/35/32 33/36/33
f 32/34/32 33/36/33 28/30/28
f 28/30/28 31/37/31 32/34/32
f 34/38/34 35/39/34 36/40/35
f 34/38/34 36/40/35 33/36/33
f 33/36/33 32/35/32 34/38/34
f 37/41/36 37/42/36 38/43/37
f 37/41/36 38/43/37 36/40/35
f 37/41/36 36/40/35 35/39/34
f 35/39/34 34/38/34 37/41/36
f 39/44/38 39/45/38 40/46/39
f 39/44/38 40/46/39 38/43/37
f 38/43/37 37/42/36 39/44/38
f 41/47/40 42/48/40 43/49/41
f 41/47/40 43/49/41 40/46/39
f 40/46/39 39/45/38 41/47/40
f 44/50/42 44/51/42 45/52/43
f 44/50/42 45/52/43 43/49/41
f 44/50/42 43/49/41 42/48/40
f 42/48/40 41/47/40 44/50/42
f 46/53/44 46/54/44 47/55/45
f 46/53/44 47/55/45 45/52/43
f 45/52/43 44/51/42 46/53/44
f 48/56/46 48/57/46 49/58/47
f 48/56/46 49/58/47 47/55/45
f 47/55/45 46/54/44 48/56/46
f 50/59/48 50/60/48 51/61/49
f 50/59/48 51/61/49 49/58/47
f 49/58/47 48/57/46 50/59/48
f 52/62/50 52/63/50 53/64/51
f 52/62/50 53/64/51 51/61/49
f 51/61/49 50/60/48 52/62/50
f 54/65/52 54/66/52 55/67/53
f 54/65/52 55/67/53 53/64/51
f 53/64/51 52/63/50 54/65/52
f 56/68/54 56/69/54 57/70/55
f 56/68/54 57/70/55 55/67/53
f 55/67/53 54/66/52 56/68/54
f 58/71/56 58/72/56 59/73/57
f 58/71/56 59/73/57 57/70/55
f 57/70/55 56/69/54 58/71/56
f 60/74/58 60/75/58 61/76/59
f 60/74/58 61/76/59 59/73/57
f 59/73/57 58/72/56 60/74/58
f 62/77/60 61/76/59 60/75/58
f 62/77/60 60/75/58 63/78/61
f 62/77/60 63/78/61 25/79/25
f 62/77/60 25/79/25 24/25/24
f 64/80/62 24/25/24 23/24/23
f 23/24/23 65/81/63 64/80/62
f 65/81/63 23/24/23 27/29/27
f 27/29/27 66/82/64 65/81/63
f 67/83/65 68/84/66 66/82/64
f 67/83/65 66/82/64 27/29/27
f 67/83/65 27/29/27 29/31/29
f 29/31/29 28/30/28 67/83/65
f 67/83/65 28/30/28 33/36/33
f 33/36/33 69/85/67 67/83/65
f 69/85/67 33/36/33 36/40/35
f 36/40/35 70/86/68 69/85/67
f 70/86/68 36/40/35 38/43/37
f 38/43/37 71/87/69 70/86/68
f 71/87/69 38/43/37 40/46/39
f 40/46/39 72/88/70 71/87/69
f 72/88/70 40/46/39 43/49/41
f 43/49/41 73/89/71 72/88/70
f 73/89/71 43/49/41 45/52/43
f 45/52/43 74/90/72 73/89/71
f 74/90/72 45/52/43 47/55/45
f 47/55/45 75/91/73 74/90/72
f 75/91/73 47/55/45 49/58/47
f 49/58/47 76/92/74 75/91/73
f 76/92/74 49/58/47 51/61/49
f 51/61/49 77/93/75 76/92/74
f 77/93/75 51/61/49 53/64/51
f 53/64/51 78/94/76 77/93/75
f 78/94/76 53/64/51 55/67/53
f 55/67/53 79/95/77 78/94/76
f 79/95/77 55/67/53 57/70/55
f 57/70/55 80/96/78 79/95/77
f 80/96/78 57/70/55 59/73/57
f 59/73/57 81/97/79 80/96/78
f 81/97/79 59/73/57 61/76/59
f 61/76/59 82/98/80 81/97/79
f 64/80/62 83/99/81 82/98/80
f 64/80/62 82/98/80 61/76/59
f 64/80/62 61/76/59 62/77/60
f 62/77/60 24/25/24 64/80/62
f 84/100/82 64/80/62 65/81/63
f 65/81/63 85/101/83 84/100/82
f 85/101/83 65/81/63 66/82/64
f 66/82/64 86/102/84 85/101/83
f 87/103/85 88/104/86 86/102/84
f 87/103/85 86/102/84 66/82/64
f 87/103/85 66/82/64 68/84/66
f 68/84/66 67/83/65 87/103/85
f 87/103/85 67/83/65 69/85/67
f 69/85/67 89/105/87 87/103/85
f 89/105/87 69/85/67 70/86/68
f 70/86/68 90/106/88 89/105/87
f 90/106/88 70/86/68 71/87/69
f 71/87/69 91/107/89 90/106/88
f 91/107/89 71/87/69 72/88/70
f 72/88/70 92/108/90 91/107/89
f 92/108/90 72/88/70 73/89/71
f 73/89/71 93/109/91 92/108/90
f 93/109/91 73/89/71 74/90/72
f 74/90/72 94/110/92 93/109/91
f 94/110/92 74/90/72 75/91/73
f 75/91/73 95/111/93 94/110/92
f 95/111/93 75/91/73 76/92/74
f 76/92/74 96/112/94 95/111/93
f 96/112/94 76/92/74 77/93/75
f 77/93/75 97/113/95 96/112/94
f 97/113/95 77/93/75 78/94/76
f 78/94/76 98/114/96 97/113/95
f 98/114/96 78/94/76 79/95/77
f 79/95/77 99/115/97 98/114/96
f 99/115/97 79/95/77 80/96/78
f 80/96/78 100/116/98 99/115/97
f 100/116/98 80/96/78 81/97/79
f 81/97/79 101/117/99 100/116/98
f 101/117/99 81/97/79 82/98/80
f 82/98/80 102/118/100 101/117/99
f 103/119/101 102/118/100 82/98/80
f 103/119/101 82/98/80 83/99/81
f 103/119/101 83/99/81 64/80/62
f 103/119/101 64/80/62 84/100/82
f 104/120/102 84/100/82 85/101/83
f 85/101/83 105/121/103 104/120/102
f 105/121/103 85/101/83 86/102/84
f 86/102/84 106/122/104 105/121/103
f 107/123/105 106/122/104 86/102/84
f 107/123/105 86/102/84 88/104/86
f 107/123/105 88/104/86 87/103/85
f 107/123/105 87/103/85 108/124/106
f 108/124/106 87/103/85 89/105/87
f 89/105/87 109/125/107 108/124/106
f 109/125/107 89/105/87 90/106/88
f 90/106/88 110/126/108 109/125/107
f 110/126/108 90/106/88 91/107/89
f 91/107/89 111/127/109 110/126/108
f 111/127/109 91/107/89 92/108/90
f 92/108/90 112/128/110 111/127/109
f 112/128/110 92/108/90 93/109/91
f 93/109/91 113/129/111 112/128/110
f 113/129/111 93/109/91 94/110/92
f 94/110/92 114/130/112 113/129/111
f 114/130/112 94/110/92 95/111/93
f 95/111/93 115/131/113 114/130/112
f 115/131/113 95/111/93 96/112/94
f 96/112/94 116/132/114 115/131/113
f 116/132/114 96/112/94 97/113/95
f 97/113/95 117/133/115 116/132/114
f 117/133/115 97/113/95 98/114/96
f 98/114/96 118/134/116 117/133/115
f 118/134/116 98/114/96 99/115/97
f 99/115/97 119/135/117 118/134/116
f 119/135/117 99/115/97 100/116/98
f 100/116/98 120/136/118 119/135/117
f 120/136/118 100/116/98 101/117/99
f 101/117/99 121/137/119 120/136/118
f 121/137/119 101/117/99 102/118/100
f 102/118/100 122/138/120 121/137/119
f 123/139/121 122/138/120 102/118/100
f 123/139/121 102/118/100 103/119/101
f 123/139/121 103/119/101 84/100/82
f 123/139/121 84/100/82 104/120/102
f 1/1/1 104/120/102 105/121/103
f 105/121/103 2/2/2 1/1/1
f 2/2/2 105/121/103 106/122/104
f 106/122/104 4/4/4 2/2/2
f 6/6/6 4/4/4 106/122/104
f 6/6/6 106/122/104 107/123/105
f 6/6/6 107/123/105 108/124/106
f 6/6/6 108/124/106 5/5/5
f 5/5/5 108/124/106 109/125/107
f 109/125/107 7/7/7 5/5/5
f 7/7/7 109/125/107 110/126/108
f 110/126/108 8/8/8 7/7/7
f 8/8/8 110/126/108 111/127/109
f 111/127/109 9/9/9 8/8/8
f 9/9/9 111/127/109 112/128/110
f 112/128/110 10/10/10 9/9/9
f 10/10/10 112/128/110 113/129/111
f 113/129/111 11/11/11 10/10/10
f 11/11/11 113/129/111 114/130/112
f 114/130/112 12/12/12 11/11/11
f 12/12/12 114/130/112 115/131/113
f 115/131/113 13/13/13 12/12/12
f 13/13/13 115/131/113 116/132/114
f 116/132/114 14/14/14 13/13/13
f 14/14/14 116/132/114 117/133/115
f 117/133/115 15/15/15 14/14/14
f 15/15/15 117/133/115 118/134/116
f 118/134/116 16/16/16 15/15/15
f 16/16/16 118/134/116 119/135/117
f 119/135/117 17/17/17 16/16/16
f 17/17/17 119/135/117 120/136/118
f 120/136/118 18/18/18 17/17/17
f 18/18/18 120/136/118 121/137/119
f 121/137/119 19/19/19 18/18/18
f 19/19/19 121/137/119 122/138/120
f 122/138/120 20/20/20 19/19/19
f 1/1/1 21/21/21 20/20/20
f 1/1/1 20/20/20 122/138/120
f 1/1/1 122/138/120 123/139/121
f 123/139/121 104/120/102 1/1/1
